<svg xmlns="http://www.w3.org/2000/svg" width="512" height="512" viewBox="0 0 512 512" version="1.1">
	<path d="M 255 67.869 C 255 68.346, 251.923 73.859, 248.163 80.119 C 244.402 86.378, 238.709 96, 235.512 101.500 C 232.315 107, 227.814 114.650, 225.511 118.500 C 223.208 122.350, 218.034 131.125, 214.013 138 C 209.993 144.875, 205.481 152.525, 203.988 155 C 202.494 157.475, 197.436 166.025, 192.747 174 C 148.241 249.700, 60.349 398.896, 54.892 408.009 C 51.101 414.339, 48 420.076, 48 420.759 C 48 421.710, 53.220 422, 70.335 422 C 82.620 422, 118.282 422.288, 149.585 422.640 L 206.500 423.281 209.649 417.890 C 254.059 341.875, 253.985 342, 254.939 342 C 255.405 342, 257.780 345.487, 260.215 349.750 C 262.651 354.012, 269.973 366.725, 276.486 378 C 283 389.275, 291.544 404.125, 295.473 411 L 302.618 423.500 381.059 424 C 424.202 424.275, 459.837 424.253, 460.249 423.951 C 460.661 423.649, 450.601 405.199, 437.894 382.951 C 425.186 360.703, 413.427 340.025, 411.762 337 C 410.097 333.975, 408.405 331.050, 408.001 330.500 C 407.598 329.950, 406.152 327.475, 404.788 325 C 403.425 322.525, 399.840 316.225, 396.823 311 C 393.805 305.775, 390.083 299.250, 388.552 296.500 C 386.230 292.331, 354.825 237.279, 269.185 87.250 C 262.827 76.112, 257.035 67, 256.313 67 C 255.591 67, 255 67.391, 255 67.869" stroke="none" fill="black" fill-rule="evenodd"/>
</svg>